<svg width="24" height="24" viewBox="0 0 24 24" fill="none" xmlns="http://www.w3.org/2000/svg">
<path d="M10 3.99995C8.4087 3.99995 6.88258 4.6321 5.75736 5.75731C4.63214 6.88253 4 8.40866 4 9.99995C4 11.5913 4.63214 13.1174 5.75736 14.2426C6.88258 15.3678 8.4087 16 10 16C11.5913 16 13.1174 15.3678 14.2426 14.2426C15.3679 13.1174 16 11.5913 16 9.99995C16 8.40866 15.3679 6.88253 14.2426 5.75731C13.1174 4.6321 11.5913 3.99995 10 3.99995ZM2 9.99995C2.00018 8.72681 2.30422 7.4721 2.88684 6.3401C3.46946 5.20809 4.31384 4.23148 5.3498 3.49144C6.38577 2.7514 7.5834 2.26929 8.84315 2.08518C10.1029 1.90108 11.3884 2.0203 12.5928 2.43293C13.7973 2.84556 14.8858 3.53969 15.768 4.45762C16.6502 5.37556 17.3006 6.49079 17.6651 7.71063C18.0296 8.93047 18.0977 10.2197 17.8638 11.4712C17.6298 12.7226 17.1006 13.9002 16.32 14.906L21.707 20.293C21.8892 20.4816 21.99 20.7342 21.9877 20.9964C21.9854 21.2586 21.8802 21.5094 21.6948 21.6948C21.5094 21.8802 21.2586 21.9853 20.9964 21.9876C20.7342 21.9899 20.4816 21.8891 20.293 21.707L14.906 16.32C13.7235 17.2381 12.307 17.8059 10.8178 17.9589C9.32851 18.112 7.82619 17.844 6.48165 17.1856C5.1371 16.5272 4.00429 15.5047 3.21202 14.2344C2.41976 12.9642 1.99983 11.4971 2 9.99995Z" fill="black"/>
</svg>
