<svg width="24" height="24" viewBox="0 0 24 24" fill="none" xmlns="http://www.w3.org/2000/svg">
<path d="M9 11.5C9.26522 11.5 9.51957 11.3946 9.70711 11.2071C9.89464 11.0196 10 10.7652 10 10.5C10 10.2348 9.89464 9.98043 9.70711 9.79289C9.51957 9.60536 9.26522 9.5 9 9.5C8.73478 9.5 8.48043 9.60536 8.29289 9.79289C8.10536 9.98043 8 10.2348 8 10.5C8 10.7652 8.10536 11.0196 8.29289 11.2071C8.48043 11.3946 8.73478 11.5 9 11.5ZM11 10.5C11 10.2348 11.1054 9.98043 11.2929 9.79289C11.4804 9.60536 11.7348 9.5 12 9.5H15C15.2652 9.5 15.5196 9.60536 15.7071 9.79289C15.8946 9.98043 16 10.2348 16 10.5C16 10.7652 15.8946 11.0196 15.7071 11.2071C15.5196 11.3946 15.2652 11.5 15 11.5H12C11.7348 11.5 11.4804 11.3946 11.2929 11.2071C11.1054 11.0196 11 10.7652 11 10.5ZM12 12.5C11.7348 12.5 11.4804 12.6054 11.2929 12.7929C11.1054 12.9804 11 13.2348 11 13.5C11 13.7652 11.1054 14.0196 11.2929 14.2071C11.4804 14.3946 11.7348 14.5 12 14.5H15C15.2652 14.5 15.5196 14.3946 15.7071 14.2071C15.8946 14.0196 16 13.7652 16 13.5C16 13.2348 15.8946 12.9804 15.7071 12.7929C15.5196 12.6054 15.2652 12.5 15 12.5H12ZM12 15.5C11.7348 15.5 11.4804 15.6054 11.2929 15.7929C11.1054 15.9804 11 16.2348 11 16.5C11 16.7652 11.1054 17.0196 11.2929 17.2071C11.4804 17.3946 11.7348 17.5 12 17.5H15C15.2652 17.5 15.5196 17.3946 15.7071 17.2071C15.8946 17.0196 16 16.7652 16 16.5C16 16.2348 15.8946 15.9804 15.7071 15.7929C15.5196 15.6054 15.2652 15.5 15 15.5H12ZM10 13.5C10 13.7652 9.89464 14.0196 9.70711 14.2071C9.51957 14.3946 9.26522 14.5 9 14.5C8.73478 14.5 8.48043 14.3946 8.29289 14.2071C8.10536 14.0196 8 13.7652 8 13.5C8 13.2348 8.10536 12.9804 8.29289 12.7929C8.48043 12.6054 8.73478 12.5 9 12.5C9.26522 12.5 9.51957 12.6054 9.70711 12.7929C9.89464 12.9804 10 13.2348 10 13.5ZM9 17.5C9.26522 17.5 9.51957 17.3946 9.70711 17.2071C9.89464 17.0196 10 16.7652 10 16.5C10 16.2348 9.89464 15.9804 9.70711 15.7929C9.51957 15.6054 9.26522 15.5 9 15.5C8.73478 15.5 8.48043 15.6054 8.29289 15.7929C8.10536 15.9804 8 16.2348 8 16.5C8 16.7652 8.10536 17.0196 8.29289 17.2071C8.48043 17.3946 8.73478 17.5 9 17.5Z" fill="black"/>
<path d="M9 2C8.73478 2 8.48043 2.10536 8.29289 2.29289C8.10536 2.48043 8 2.73478 8 3H6C5.46957 3 4.96086 3.21071 4.58579 3.58579C4.21071 3.96086 4 4.46957 4 5V20C4 20.5304 4.21071 21.0391 4.58579 21.4142C4.96086 21.7893 5.46957 22 6 22H18C18.5304 22 19.0391 21.7893 19.4142 21.4142C19.7893 21.0391 20 20.5304 20 20V5C20 4.46957 19.7893 3.96086 19.4142 3.58579C19.0391 3.21071 18.5304 3 18 3H16C16 2.73478 15.8946 2.48043 15.7071 2.29289C15.5196 2.10536 15.2652 2 15 2H9ZM16 5H18V20H6V5H8V6C8 6.26522 8.10536 6.51957 8.29289 6.70711C8.48043 6.89464 8.73478 7 9 7H15C15.2652 7 15.5196 6.89464 15.7071 6.70711C15.8946 6.51957 16 6.26522 16 6V5ZM10 5V4H14V5H10Z" fill="black"/>
</svg>
