<svg width="24" height="24" viewBox="0 0 24 24" fill="none" xmlns="http://www.w3.org/2000/svg">
<path d="M8 3C8 2.73478 8.10536 2.48043 8.29289 2.29289C8.48043 2.10536 8.73478 2 9 2H15C15.2652 2 15.5196 2.10536 15.7071 2.29289C15.8946 2.48043 16 2.73478 16 3H18C18.5304 3 19.0391 3.21071 19.4142 3.58579C19.7893 3.96086 20 4.46957 20 5V20C20 20.5304 19.7893 21.0391 19.4142 21.4142C19.0391 21.7893 18.5304 22 18 22H6C5.46957 22 4.96086 21.7893 4.58579 21.4142C4.21071 21.0391 4 20.5304 4 20V5C4 4.46957 4.21071 3.96086 4.58579 3.58579C4.96086 3.21071 5.46957 3 6 3H8ZM8 5H6V20H18V5H16V6C16 6.26522 15.8946 6.51957 15.7071 6.70711C15.5196 6.89464 15.2652 7 15 7H9C8.73478 7 8.48043 6.89464 8.29289 6.70711C8.10536 6.51957 8 6.26522 8 6V5ZM14 4H10V5H14V4ZM15.707 10.793C15.8945 10.9805 15.9998 11.2348 15.9998 11.5C15.9998 11.7652 15.8945 12.0195 15.707 12.207L11.707 16.207C11.5195 16.3945 11.2652 16.4998 11 16.4998C10.7348 16.4998 10.4805 16.3945 10.293 16.207L8.293 14.207C8.19749 14.1148 8.12131 14.0044 8.0689 13.8824C8.01649 13.7604 7.9889 13.6292 7.98775 13.4964C7.9866 13.3636 8.0119 13.2319 8.06218 13.109C8.11246 12.9861 8.18671 12.8745 8.28061 12.7806C8.3745 12.6867 8.48615 12.6125 8.60905 12.5622C8.73194 12.5119 8.86362 12.4866 8.9964 12.4877C9.12918 12.4889 9.2604 12.5165 9.3824 12.5689C9.50441 12.6213 9.61475 12.6975 9.707 12.793L11 14.086L14.293 10.793C14.4805 10.6055 14.7348 10.5002 15 10.5002C15.2652 10.5002 15.5195 10.6055 15.707 10.793Z" fill="black"/>
</svg>
