<svg width="16" height="20" viewBox="0 0 16 20" fill="currnet" xmlns="http://www.w3.org/2000/svg">
<path d="M5 0C4.73478 0 4.48043 0.105357 4.29289 0.292893C4.10536 0.48043 4 0.734784 4 1H2C1.46957 1 0.960859 1.21071 0.585786 1.58579C0.210714 1.96086 0 2.46957 0 3V18C0 18.5304 0.210714 19.0391 0.585786 19.4142C0.960859 19.7893 1.46957 20 2 20H14C14.5304 20 15.0391 19.7893 15.4142 19.4142C15.7893 19.0391 16 18.5304 16 18V3C16 2.46957 15.7893 1.96086 15.4142 1.58579C15.0391 1.21071 14.5304 1 14 1H12C12 0.734784 11.8946 0.48043 11.7071 0.292893C11.5196 0.105357 11.2652 0 11 0H5ZM12 3H14V18H2V3H4V4C4 4.26522 4.10536 4.51957 4.29289 4.70711C4.48043 4.89464 4.73478 5 5 5H11C11.2652 5 11.5196 4.89464 11.7071 4.70711C11.8946 4.51957 12 4.26522 12 4V3ZM6 3V2H10V3H6Z" fill="currnet"/>
</svg>
