<svg width="16" height="20" viewBox="0 0 16 20" fill="none" xmlns="http://www.w3.org/2000/svg">
<path d="M4 1C4 0.734784 4.10536 0.48043 4.29289 0.292893C4.48043 0.105357 4.73478 0 5 0H11C11.2652 0 11.5196 0.105357 11.7071 0.292893C11.8946 0.48043 12 0.734784 12 1H14C14.5304 1 15.0391 1.21071 15.4142 1.58579C15.7893 1.96086 16 2.46957 16 3V18C16 18.5304 15.7893 19.0391 15.4142 19.4142C15.0391 19.7893 14.5304 20 14 20H2C1.46957 20 0.960859 19.7893 0.585786 19.4142C0.210714 19.0391 0 18.5304 0 18V3C0 2.46957 0.210714 1.96086 0.585786 1.58579C0.960859 1.21071 1.46957 1 2 1H4ZM4 3H2V18H14V3H12V4C12 4.26522 11.8946 4.51957 11.7071 4.70711C11.5196 4.89464 11.2652 5 11 5H5C4.73478 5 4.48043 4.89464 4.29289 4.70711C4.10536 4.51957 4 4.26522 4 4V3ZM10 2H6V3H10V2ZM11.707 8.793C11.8945 8.98053 11.9998 9.23484 11.9998 9.5C11.9998 9.76516 11.8945 10.0195 11.707 10.207L7.707 14.207C7.51947 14.3945 7.26516 14.4998 7 14.4998C6.73484 14.4998 6.48053 14.3945 6.293 14.207L4.293 12.207C4.19749 12.1148 4.12131 12.0044 4.0689 11.8824C4.01649 11.7604 3.9889 11.6292 3.98775 11.4964C3.9866 11.3636 4.0119 11.2319 4.06218 11.109C4.11246 10.9861 4.18671 10.8745 4.28061 10.7806C4.3745 10.6867 4.48615 10.6125 4.60905 10.5622C4.73194 10.5119 4.86362 10.4866 4.9964 10.4877C5.12918 10.4889 5.2604 10.5165 5.3824 10.5689C5.50441 10.6213 5.61475 10.6975 5.707 10.793L7 12.086L10.293 8.793C10.4805 8.60553 10.7348 8.50021 11 8.50021C11.2652 8.50021 11.5195 8.60553 11.707 8.793Z" fill="#3D4044"/>
</svg>
